<?xml version="1.0" encoding="utf-8"?>
<!-- Generator: Adobe Illustrator 18.1.1, SVG Export Plug-In . SVG Version: 6.00 Build 0)  -->
<svg version="1.1" id="Layer_1" xmlns="http://www.w3.org/2000/svg" xmlns:xlink="http://www.w3.org/1999/xlink" x="0px" y="0px"
	 viewBox="0 0 20 20" enable-background="new 0 0 20 20" xml:space="preserve">
<g id="logo_-_LinkedIn_19_">
	<g>
		<path fill-rule="evenodd" clip-rule="evenodd" fill="#808080" d="M11.5,9.2L11.5,9.2C11.5,9.2,11.5,9.2,11.5,9.2L11.5,9.2z
			 M18.1,0H1.9C0.9,0,0,0.9,0,1.9v16.2C0,19.1,0.9,20,1.9,20h16.2c1.1,0,1.9-0.9,1.9-1.9V1.9C20,0.9,19.1,0,18.1,0z M4.9,4.3
			c0.8,0,1.3,0.6,1.3,1.4c0,0.8-0.5,1.4-1.4,1.4h0c-0.8,0-1.3-0.6-1.3-1.4C3.6,4.9,4.1,4.3,4.9,4.3z M6.4,16.4H3.7V8h2.7V16.4z
			 M17.1,16.4h-2.8v-4.4c0-1.1-0.3-1.8-1.3-1.8c-0.8,0-1.2,0.5-1.4,1c-0.1,0.2-0.1,0.4-0.1,0.7v4.6H8.6c0,0,0-7.6,0-8.4h2.9v1.2
			c0.4-0.6,1-1.3,2.5-1.3c1.8,0,3.1,1.4,3.1,3.9V16.4z"/>
	</g>
</g>
</svg>
