<?xml version="1.0" encoding="utf-8"?>
<!-- Generator: Adobe Illustrator 18.1.1, SVG Export Plug-In . SVG Version: 6.00 Build 0)  -->
<svg version="1.1" id="Layer_1" xmlns="http://www.w3.org/2000/svg" xmlns:xlink="http://www.w3.org/1999/xlink" x="0px" y="0px"
	 viewBox="0 0 20 20" enable-background="new 0 0 20 20" xml:space="preserve">
<g id="logo_-_Twitter_19_">
	<g>
		<path fill="#808080" d="M18.1,4.5L19.4,2l-1.9,1.2l-0.4,0.2C16.4,2.6,15.3,2,14.1,2C11.8,2,10,3.5,10,5.7c0,0.3,0,0.9,0.1,1.2
			l-0.1,0c0,0-8.1-1.2-8.7-4.3c0,0-1.9,3.1,1.2,5.5c0,0-1.2,0.6-1.9,0c0,0,0,1.8,3.1,3.7c0,0-1.3,0.6-1.9,0c0,0,2.5,2.5,3.8,2.5
			c0,0,0,1.8-5.6,1.8c0,0,7.1,4.6,13.7-0.6c3.4-2.7,4.2-6,4.2-8.5c0.1-0.3,0.1-0.6,0.1-1V5.7L20,3.8L18.1,4.5z"/>
	</g>
</g>
</svg>
